<svg width="110" height="22" viewBox="0 0 110 22" fill="none" xmlns="http://www.w3.org/2000/svg">
<path fill-rule="evenodd" clip-rule="evenodd" d="M44.4149 17.9077C44.7331 18.9249 45.3904 19.8016 46.2769 20.3909C47.3838 21.092 48.6799 21.4329 49.9876 21.367C51.3765 21.4292 52.736 20.9538 53.7845 20.039C54.2853 19.5438 54.6745 18.9468 54.926 18.2883C55.1774 17.6298 55.2853 16.925 55.2423 16.2212V6.11559C55.2372 5.97405 55.1779 5.83991 55.0767 5.74101C54.9756 5.6421 54.8403 5.58603 54.6989 5.58441H53.1418C53.0012 5.58441 52.8663 5.64037 52.7669 5.73999C52.6675 5.8396 52.6117 5.97471 52.6117 6.11559V6.42766L52.5321 6.36126C51.666 5.7174 50.6084 5.3852 49.5304 5.41842C48.7548 5.38833 47.9818 5.52574 47.2638 5.8213C46.5458 6.11687 45.8996 6.56369 45.3691 7.13146C44.3893 8.27705 43.8508 9.73602 43.8508 11.2448C43.8508 12.7535 44.3893 14.2125 45.3691 15.358C45.8808 15.9192 46.5076 16.3628 47.2064 16.6584C47.9052 16.9541 48.6596 17.0949 49.4178 17.0711C50.5329 17.1061 51.6273 16.7647 52.5255 16.1017L52.6117 16.0419V16.1415C52.6641 16.8896 52.4268 17.6292 51.949 18.2065C51.6376 18.4592 51.2795 18.648 50.8952 18.7619C50.5109 18.8759 50.1079 18.9127 49.7093 18.8704C47.7166 18.8704 47.3035 17.8762 47.1679 17.5497L47.1649 17.5425C47.1261 17.4441 47.0585 17.3597 46.971 17.3004C46.8835 17.2412 46.7801 17.2098 46.6745 17.2105H44.9517C44.8619 17.2079 44.7729 17.227 44.6921 17.2663C44.6113 17.3056 44.5412 17.3639 44.4878 17.4363C44.4394 17.5035 44.4075 17.5812 44.3948 17.6632C44.3821 17.7451 44.389 17.8289 44.4149 17.9077ZM46.4423 11.2115C46.4423 10.3408 46.7393 9.49628 47.2841 8.81794C47.5757 8.50017 47.9333 8.25043 48.3318 8.08636C48.7302 7.9223 49.1598 7.84792 49.5901 7.86847C50.0203 7.84722 50.4499 7.92333 50.8468 8.09114C51.2437 8.25896 51.5978 8.51418 51.8828 8.83786C52.4036 9.52923 52.6854 10.3719 52.6854 11.2381C52.6854 12.1044 52.4036 12.947 51.8828 13.6384C51.6093 13.9241 51.28 14.1501 50.9153 14.3023C50.4971 14.4818 50.0449 14.5679 49.5901 14.5546C49.1598 14.5752 48.7302 14.5008 48.3318 14.3367C47.9333 14.1727 47.5757 13.9229 47.2841 13.6052C46.7393 12.9268 46.4423 12.0823 46.4423 11.2115Z" fill="white"/>
<path fill-rule="evenodd" clip-rule="evenodd" d="M0 11.2912C0 12.8145 0.534416 14.2893 1.50979 15.4576V15.4709C2.02024 16.0389 2.648 16.4888 3.34945 16.7892C4.0509 17.0896 4.80921 17.2334 5.5717 17.2105C6.68866 17.2445 7.78489 16.9033 8.68605 16.2411L8.76556 16.1814V16.4868C8.76469 16.5562 8.77758 16.6252 8.80349 16.6896C8.82941 16.754 8.86783 16.8126 8.91652 16.862C8.96522 16.9114 9.02322 16.9506 9.08717 16.9774C9.15112 17.0042 9.21973 17.018 9.28904 17.018H10.8462C10.9868 17.018 11.1216 16.962 11.2211 16.8624C11.3205 16.7628 11.3763 16.6277 11.3763 16.4868V6.08903C11.3746 5.94806 11.3185 5.81323 11.2196 5.71292C11.1207 5.61261 10.9869 5.55464 10.8462 5.55122H9.27579C9.20617 5.55208 9.13741 5.56668 9.07342 5.59418C9.00944 5.62168 8.95149 5.66153 8.90288 5.71147C8.85427 5.76142 8.81595 5.82047 8.79011 5.88525C8.76428 5.95003 8.75143 6.01927 8.75231 6.08903V6.4011L8.6728 6.34134C7.80706 5.69036 6.74638 5.35326 5.66446 5.38522C4.88742 5.35547 4.11323 5.49568 3.39574 5.7961C2.67825 6.09652 2.03468 6.54993 1.50979 7.12482C0.534416 8.2932 0 9.76797 0 11.2912ZM2.65654 11.2945C2.65654 10.4108 2.95276 9.55267 3.49767 8.85778L3.46454 8.87106C3.75389 8.55188 4.11003 8.30066 4.50751 8.13538C4.90498 7.9701 5.33398 7.89483 5.76386 7.91495C6.19284 7.88023 6.624 7.94617 7.02312 8.10753C7.42224 8.26888 7.77834 8.52121 8.06318 8.8445C8.61907 9.53657 8.90622 10.4068 8.87158 11.2945C8.91096 12.1872 8.61815 13.0626 8.04992 13.7512C7.77417 14.0756 7.42741 14.3319 7.03664 14.5C6.64587 14.6682 6.22164 14.7437 5.79699 14.7206C5.36435 14.738 4.93331 14.6582 4.53546 14.487C4.1376 14.3158 3.78301 14.0576 3.49767 13.7313C2.95276 13.0364 2.65654 12.1783 2.65654 11.2945Z" fill="white"/>
<path fill-rule="evenodd" clip-rule="evenodd" d="M30.95 11.2879C30.95 12.8113 31.4823 14.2865 32.4545 15.4576L32.4214 15.4776C32.932 16.0431 33.559 16.491 34.2591 16.7902C34.9593 17.0894 35.7158 17.2328 36.4767 17.2105C37.595 17.2469 38.6934 16.908 39.5976 16.2478L39.6772 16.188V16.4934C39.6772 16.6325 39.7323 16.766 39.8305 16.8643C39.9287 16.9627 40.0618 17.018 40.2006 17.018H41.7976C41.9382 17.018 42.073 16.962 42.1724 16.8624C42.2718 16.7628 42.3277 16.6277 42.3277 16.4868V6.08239C42.3259 5.9409 42.2686 5.80581 42.1681 5.70638C42.0677 5.60695 41.9322 5.55121 41.7909 5.55122H40.2271C40.0865 5.55122 39.9517 5.60718 39.8523 5.70679C39.7529 5.80641 39.697 5.94151 39.697 6.08239V6.39445L39.6241 6.3347C38.7549 5.68559 37.6928 5.34878 36.6092 5.37858C35.8323 5.35017 35.0585 5.491 34.3413 5.79133C33.624 6.09166 32.9802 6.54436 32.4545 7.11818C31.4823 8.2893 30.95 9.76456 30.95 11.2879ZM33.5609 11.2547C33.5609 10.3697 33.8599 9.51086 34.4093 8.81794H34.4159C34.7015 8.492 35.0562 8.23404 35.454 8.06289C35.8517 7.89174 36.2826 7.81171 36.7152 7.82863C37.1411 7.80617 37.5663 7.88326 37.9573 8.05381C38.3483 8.22435 38.6944 8.48368 38.9682 8.8113C39.5249 9.50069 39.8143 10.3684 39.7832 11.2547C39.8228 12.1442 39.5324 13.0169 38.9682 13.7048C38.6937 14.0312 38.3474 14.2892 37.9564 14.4586C37.5654 14.628 37.1405 14.7041 36.7152 14.6808C36.2815 14.6992 35.8492 14.6199 35.4501 14.4487C35.051 14.2774 34.6953 14.0187 34.4093 13.6915C33.8599 12.9986 33.5609 12.1397 33.5609 11.2547Z" fill="white"/>
<path d="M20.3644 16.8889C20.4638 16.9886 20.5987 17.0445 20.7393 17.0445L22.2832 17.0777C22.4238 17.0777 22.5586 17.0218 22.658 16.9221C22.7574 16.8225 22.8133 16.6874 22.8133 16.5465V10.3185C22.792 9.99184 22.8401 9.66436 22.9543 9.35765C23.0685 9.05093 23.2463 8.77195 23.4759 8.53908H23.4693C23.6796 8.33053 23.9305 8.16753 24.2064 8.06016C24.4822 7.9528 24.7771 7.90337 25.0728 7.91495C25.3483 7.89926 25.6238 7.94401 25.8801 8.04608C26.1365 8.14815 26.3676 8.30507 26.5571 8.50588C26.9682 9.00202 27.1786 9.63461 27.1469 10.2787V16.52C27.1469 16.6609 27.2027 16.796 27.3021 16.8956C27.4015 16.9952 27.5364 17.0512 27.677 17.0512H29.2606C29.4012 17.0512 29.5361 16.9952 29.6355 16.8956C29.7349 16.796 29.7907 16.6609 29.7907 16.52V10.2322C29.821 8.94327 29.3451 7.69394 28.4655 6.753C28.0635 6.33632 27.584 6.00248 27.0541 5.77032C26.0311 5.33919 24.8834 5.31074 23.8403 5.69065C23.0721 5.94922 22.3861 6.40746 21.8525 7.01859V7.05842L21.8127 7.01859C21.5132 6.62749 21.1449 6.29447 20.726 6.03591C20.0044 5.59652 19.1706 5.37757 18.3268 5.40587C17.4829 5.43418 16.6656 5.70851 15.975 6.19527L15.9021 6.24838V6.10231C15.9021 5.96143 15.8462 5.82633 15.7468 5.72671C15.6474 5.6271 15.5126 5.57113 15.372 5.57113H13.8082C13.6676 5.57113 13.5327 5.6271 13.4333 5.72671C13.3339 5.82633 13.2781 5.96143 13.2781 6.10231V16.5333C13.2781 16.6741 13.3339 16.8092 13.4333 16.9089C13.5327 17.0085 13.6676 17.0644 13.8082 17.0644H15.372C15.5126 17.0644 15.6474 17.0085 15.7468 16.9089C15.8462 16.8092 15.9021 16.6741 15.9021 16.5333V10.3119C15.8804 9.98516 15.9282 9.65756 16.0425 9.35078C16.1567 9.04401 16.3347 8.76506 16.5647 8.53244C16.7768 8.32668 17.0281 8.16593 17.3036 8.05983C17.5792 7.95372 17.8733 7.90445 18.1683 7.91495C18.4373 7.90155 18.7061 7.94618 18.9564 8.04584C19.2068 8.14549 19.4329 8.29785 19.6194 8.4926C20.0305 8.98875 20.2409 9.62133 20.2091 10.2654V16.5133C20.2091 16.6542 20.265 16.7893 20.3644 16.8889Z" fill="white"/>
<path d="M57.528 16.8782C57.6256 16.9797 57.7588 17.0394 57.8994 17.0445V17.0246H59.4699C59.5404 17.0237 59.61 17.009 59.6748 16.9811C59.7396 16.9533 59.7982 16.913 59.8475 16.8624C59.8967 16.8118 59.9355 16.7521 59.9617 16.6865C59.9878 16.6209 60.0008 16.5508 60 16.4801V6.00272C60.0017 5.85944 59.9471 5.72124 59.8479 5.61807C59.7486 5.51491 59.6128 5.4551 59.4699 5.45162H57.8994C57.7582 5.4551 57.6241 5.51421 57.5261 5.61613C57.4281 5.71805 57.3742 5.85456 57.376 5.99607V16.5001C57.3759 16.6411 57.4304 16.7766 57.528 16.8782Z" fill="white"/>
<path d="M78.0057 16.8739H75.6593L70.3464 8.84585V16.8739H68V5.15865H70.3464L75.6593 13.2035V5.15865H78.0057V16.8739Z" fill="white"/>
<path d="M85.7547 16.9912C84.6597 16.9912 83.6541 16.7342 82.7379 16.2203C81.8217 15.7063 81.0955 14.9968 80.5591 14.0917C80.0228 13.1755 79.7547 12.142 79.7547 10.9911C79.7547 9.85145 80.0228 8.82909 80.5591 7.92405C81.0955 7.00784 81.8217 6.29274 82.7379 5.77877C83.6541 5.2648 84.6597 5.00781 85.7547 5.00781C86.8609 5.00781 87.8665 5.2648 88.7715 5.77877C89.6877 6.29274 90.4084 7.00784 90.9336 7.92405C91.4699 8.82909 91.7381 9.85145 91.7381 10.9911C91.7381 12.142 91.4699 13.1755 90.9336 14.0917C90.4084 14.9968 89.6877 15.7063 88.7715 16.2203C87.8553 16.7342 86.8497 16.9912 85.7547 16.9912ZM85.7547 14.8962C86.4587 14.8962 87.0788 14.7398 87.6151 14.4269C88.1514 14.1029 88.5704 13.6448 88.8721 13.0526C89.1738 12.4604 89.3246 11.7733 89.3246 10.9911C89.3246 10.209 89.1738 9.52743 88.8721 8.94641C88.5704 8.35423 88.1514 7.90171 87.6151 7.58885C87.0788 7.276 86.4587 7.11957 85.7547 7.11957C85.0508 7.11957 84.4251 7.276 83.8776 7.58885C83.3413 7.90171 82.9223 8.35423 82.6206 8.94641C82.3189 9.52743 82.1681 10.209 82.1681 10.9911C82.1681 11.7733 82.3189 12.4604 82.6206 13.0526C82.9223 13.6448 83.3413 14.1029 83.8776 14.4269C84.4251 14.7398 85.0508 14.8962 85.7547 14.8962Z" fill="white"/>
<path d="M109.121 5.17541L105.853 16.8739H103.087L100.892 8.54417L98.5955 16.8739L95.8469 16.8907L92.696 5.17541H95.21L97.2715 14.2593L99.6514 5.17541H102.266L104.512 14.2091L106.59 5.17541H109.121Z" fill="white"/>
</svg>
