<svg width="16" height="16" viewBox="0 0 16 16" fill="none" xmlns="http://www.w3.org/2000/svg">
<path d="M11.4699 10.6346L14 13.1641L13.1641 14L10.6346 11.4699C9.69346 12.2244 8.52279 12.6348 7.31653 12.6331C4.38181 12.6331 2 10.2513 2 7.31653C2 4.38181 4.38181 2 7.31653 2C10.2513 2 12.6331 4.38181 12.6331 7.31653C12.6348 8.52279 12.2244 9.69346 11.4699 10.6346ZM10.2849 10.1963C11.0346 9.42535 11.4533 8.39191 11.4516 7.31653C11.4516 5.0316 9.60087 3.18145 7.31653 3.18145C5.0316 3.18145 3.18145 5.0316 3.18145 7.31653C3.18145 9.60087 5.0316 11.4516 7.31653 11.4516C8.39191 11.4533 9.42535 11.0346 10.1963 10.2849L10.2849 10.1963Z" fill="#E7E7E7"/>
</svg>
