<svg width="10" height="10" viewBox="0 0 10 10" fill="none" xmlns="http://www.w3.org/2000/svg">
<path d="M7.08333 6.66536H7.91667V1.66536H3.75V2.4987H7.08333V6.66536ZM7.08333 7.4987V8.7487C7.08333 8.9787 6.89583 9.16537 6.66375 9.16537H1.66958C1.61464 9.16569 1.56017 9.15516 1.5093 9.13438C1.45844 9.11359 1.41218 9.08296 1.37319 9.04424C1.3342 9.00552 1.30325 8.95948 1.28211 8.90876C1.26096 8.85804 1.25005 8.80365 1.25 8.7487L1.25125 2.91536C1.25125 2.68536 1.43875 2.4987 1.67083 2.4987H2.91667V1.2487C2.91667 1.13819 2.96057 1.03221 3.03871 0.95407C3.11685 0.87593 3.22283 0.832031 3.33333 0.832031H8.33333C8.44384 0.832031 8.54982 0.87593 8.62796 0.95407C8.7061 1.03221 8.75 1.13819 8.75 1.2487V7.08203C8.75 7.19254 8.7061 7.29852 8.62796 7.37666C8.54982 7.4548 8.44384 7.4987 8.33333 7.4987H7.08333ZM2.08458 3.33203L2.08333 8.33203H6.25V3.33203H2.08458ZM2.91667 6.66536H4.79167C4.84692 6.66536 4.89991 6.64342 4.93898 6.60435C4.97805 6.56528 5 6.51228 5 6.45703C5 6.40178 4.97805 6.34879 4.93898 6.30972C4.89991 6.27065 4.84692 6.2487 4.79167 6.2487H3.54167C3.2654 6.2487 3.00045 6.13895 2.8051 5.9436C2.60975 5.74825 2.5 5.4833 2.5 5.20703C2.5 4.93076 2.60975 4.66581 2.8051 4.47046C3.00045 4.27511 3.2654 4.16536 3.54167 4.16536H3.75V3.7487H4.58333V4.16536H5.41667V4.9987H3.54167C3.48641 4.9987 3.43342 5.02065 3.39435 5.05972C3.35528 5.09879 3.33333 5.15178 3.33333 5.20703C3.33333 5.26228 3.35528 5.31528 3.39435 5.35435C3.43342 5.39342 3.48641 5.41536 3.54167 5.41536H4.79167C5.06793 5.41536 5.33289 5.52511 5.52824 5.72046C5.72359 5.91581 5.83333 6.18076 5.83333 6.45703C5.83333 6.7333 5.72359 6.99825 5.52824 7.1936C5.33289 7.38895 5.06793 7.4987 4.79167 7.4987H4.58333V7.91536H3.75V7.4987H2.91667V6.66536Z" fill="#E7E7E7"/>
</svg>
