<svg width="8" height="8" viewBox="0 0 8 8" fill="none" xmlns="http://www.w3.org/2000/svg">
<path d="M3.99984 7.33464C2.15884 7.33464 0.666504 5.8423 0.666504 4.0013C0.666504 2.1603 2.15884 0.667969 3.99984 0.667969C5.84084 0.667969 7.33317 2.1603 7.33317 4.0013C7.33317 5.8423 5.84084 7.33464 3.99984 7.33464ZM3.99984 6.66797C4.70708 6.66797 5.38536 6.38702 5.88546 5.88692C6.38555 5.38682 6.6665 4.70855 6.6665 4.0013C6.6665 3.29406 6.38555 2.61578 5.88546 2.11568C5.38536 1.61559 4.70708 1.33464 3.99984 1.33464C3.29259 1.33464 2.61432 1.61559 2.11422 2.11568C1.61412 2.61578 1.33317 3.29406 1.33317 4.0013C1.33317 4.70855 1.61412 5.38682 2.11422 5.88692C2.61432 6.38702 3.29259 6.66797 3.99984 6.66797ZM2.83317 4.66797H4.6665C4.71071 4.66797 4.7531 4.65041 4.78436 4.61915C4.81561 4.5879 4.83317 4.54551 4.83317 4.5013C4.83317 4.4571 4.81561 4.41471 4.78436 4.38345C4.7531 4.35219 4.71071 4.33464 4.6665 4.33464H3.33317C3.11216 4.33464 2.9002 4.24684 2.74392 4.09056C2.58763 3.93428 2.49984 3.72232 2.49984 3.5013C2.49984 3.28029 2.58763 3.06833 2.74392 2.91205C2.9002 2.75577 3.11216 2.66797 3.33317 2.66797H3.6665V2.0013H4.33317V2.66797H5.1665V3.33464H3.33317C3.28897 3.33464 3.24658 3.35219 3.21532 3.38345C3.18406 3.41471 3.1665 3.4571 3.1665 3.5013C3.1665 3.5455 3.18406 3.5879 3.21532 3.61915C3.24658 3.65041 3.28897 3.66797 3.33317 3.66797H4.6665C4.88752 3.66797 5.09948 3.75577 5.25576 3.91205C5.41204 4.06833 5.49984 4.28029 5.49984 4.5013C5.49984 4.72232 5.41204 4.93428 5.25576 5.09056C5.09948 5.24684 4.88752 5.33464 4.6665 5.33464H4.33317V6.0013H3.6665V5.33464H2.83317V4.66797Z" fill="#E7E7E7"/>
</svg>
