<svg width="16" height="16" viewBox="0 0 16 16" fill="none" xmlns="http://www.w3.org/2000/svg">
<path d="M6.70312 12.6333V12.7C6.70312 13.418 7.28516 14 8.00312 14C8.72109 14 9.30312 13.418 9.30312 12.7V12.6333C9.30312 11.9154 8.72109 11.3333 8.00312 11.3333C7.28516 11.3333 6.70312 11.9154 6.70312 12.6333Z" fill="#E7E7E7"/>
<path d="M6.70312 7.96667V8.03333C6.70312 8.7513 7.28516 9.33333 8.00312 9.33333C8.72109 9.33333 9.30312 8.7513 9.30312 8.03333V7.96667C9.30312 7.2487 8.72109 6.66667 8.00312 6.66667C7.28516 6.66667 6.70312 7.2487 6.70312 7.96667Z" fill="#E7E7E7"/>
<path d="M6.70312 3.3V3.36667C6.70312 4.08464 7.28516 4.66667 8.00312 4.66667C8.72109 4.66667 9.30312 4.08464 9.30312 3.36667V3.3C9.30312 2.58203 8.72109 2 8.00312 2C7.28516 2 6.70312 2.58203 6.70312 3.3Z" fill="#E7E7E7"/>
</svg>
