<svg width="8" height="8" viewBox="0 0 8 8" fill="none" xmlns="http://www.w3.org/2000/svg">
<path d="M5.5 1.6H6.7C6.77957 1.6 6.85587 1.63161 6.91213 1.68787C6.96839 1.74413 7 1.82044 7 1.9V6.7C7 6.77957 6.96839 6.85587 6.91213 6.91213C6.85587 6.96839 6.77957 7 6.7 7H1.3C1.22044 7 1.14413 6.96839 1.08787 6.91213C1.03161 6.85587 1 6.77957 1 6.7V1.9C1 1.82044 1.03161 1.74413 1.08787 1.68787C1.14413 1.63161 1.22044 1.6 1.3 1.6H2.5V1H3.1V1.6H4.9V1H5.5V1.6ZM4.9 2.2H3.1V2.8H2.5V2.2H1.6V3.4H6.4V2.2H5.5V2.8H4.9V2.2ZM6.4 4H1.6V6.4H6.4V4Z" fill="#E7E7E7"/>
</svg>
