<svg width="20" height="20" viewBox="0 0 20 20" fill="none" xmlns="http://www.w3.org/2000/svg">
<path d="M10.8307 16.5846C11.7717 16.3922 12.6174 15.8808 13.2248 15.1367C13.8321 14.3927 14.1639 13.4618 14.1641 12.5013V10.0013C14.1652 9.42782 14.0474 8.86033 13.8182 8.33464H6.17656C5.94737 8.86033 5.82961 9.42782 5.83073 10.0013V12.5013C5.83085 13.4618 6.16264 14.3927 6.77002 15.1367C7.37739 15.8808 8.22307 16.3922 9.16406 16.5846V11.668H10.8307V16.5846ZM4.61073 14.743C4.31502 14.0326 4.1632 13.2707 4.16406 12.5013H1.66406V10.8346H4.16406V10.0013C4.16406 9.46547 4.23656 8.94714 4.37156 8.45464L2.5274 7.38964L3.36073 5.9463L5.04406 6.91797C5.09719 6.83323 5.15249 6.74987 5.2099 6.66797H14.7849C14.8424 6.74964 14.8974 6.8338 14.9507 6.91797L16.6341 5.9463L17.4674 7.38964L15.6232 8.45464C15.7582 8.9463 15.8307 9.46547 15.8307 10.0013V10.8346H18.3307V12.5013H15.8307C15.8307 13.2955 15.6724 14.053 15.3841 14.743L17.4674 15.9463L16.6341 17.3896L14.5291 16.1746C13.9827 16.85 13.2921 17.3944 12.508 17.7682C11.7239 18.1419 10.866 18.3355 9.9974 18.3346C9.12874 18.3355 8.27091 18.1419 7.48678 17.7682C6.70264 17.3944 6.01209 16.85 5.46573 16.1746L3.36073 17.3896L2.5274 15.9463L4.61073 14.7438V14.743ZM6.66406 5.0013C6.66406 4.11725 7.01525 3.2694 7.64037 2.64428C8.26549 2.01916 9.11334 1.66797 9.9974 1.66797C10.8815 1.66797 11.7293 2.01916 12.3544 2.64428C12.9795 3.2694 13.3307 4.11725 13.3307 5.0013H6.66406Z" fill="#E7E7E7"/>
</svg>
