<svg width="8" height="8" viewBox="0 0 8 8" fill="none" xmlns="http://www.w3.org/2000/svg">
<path d="M2.75317 2.75073C1.94584 2.93173 1.33317 3.7334 1.33317 4.6424C1.33316 5.13244 1.51601 5.60485 1.84594 5.96719C2.17587 6.32953 2.62913 6.55571 3.11703 6.60149C3.60494 6.64726 4.09236 6.50933 4.48393 6.21469C4.8755 5.92004 5.14303 5.48989 5.23417 5.0084C5.25379 4.90374 5.2982 4.8053 5.36368 4.72132C5.42915 4.63735 5.51379 4.57028 5.61051 4.52573C5.77117 4.45173 5.91384 4.36806 6.0385 4.27806C5.75084 4.07706 5.64317 3.6574 5.88184 3.3334C6.08076 3.06434 6.23714 2.7663 6.3455 2.44973C5.95337 2.63155 5.54369 2.77284 5.12284 2.8714C4.70251 2.9724 4.32551 2.65873 4.30084 2.26673C3.90751 2.4574 3.41084 2.6034 2.7535 2.75073H2.75317ZM6.4185 3.72873C6.80717 3.72873 7.05751 3.5874 7.33317 3.53306C7.22484 4.01573 6.83317 4.6964 5.88984 5.1314C5.76856 5.77664 5.41072 6.35335 4.88641 6.74851C4.36211 7.14368 3.70914 7.32882 3.05545 7.26767C2.40177 7.20651 1.79447 6.90347 1.35256 6.41791C0.910658 5.93235 0.665992 5.29927 0.666505 4.64273C0.666505 3.4274 1.48884 2.35073 2.60784 2.10006C3.91484 1.8074 4.50917 1.57806 4.96651 0.664062C5.19617 1.1084 5.19617 1.62806 4.96651 2.22306C5.90517 1.99973 6.65784 1.60573 7.2245 1.0404C7.2245 2.64106 6.61717 3.43573 6.41817 3.72873H6.4185Z" fill="#E7E7E7"/>
<path d="M4.38863 5.042C4.5833 5.09033 4.5833 5.31933 4.5833 5.382V5.72267C4.5833 5.90967 4.4693 5.98033 4.30196 5.98033H2.4973C2.33896 5.95133 2.25263 5.865 2.25263 5.721V5.40433C2.25263 5.246 2.32463 5.131 2.39663 5.04433L3.4473 3.92133H2.4253C2.32463 3.92133 2.25263 3.84933 2.25263 3.72C2.23796 3.475 2.2813 3.08667 2.4683 3C2.4973 3 2.4973 3.04333 2.4973 3.05767C2.4683 3.11533 2.4973 3.15833 2.5693 3.15833H3.86496C4.15263 3.15833 4.3253 3.15833 4.4263 3.12967C4.46963 3.11533 4.4983 3.12967 4.48396 3.173C4.45496 3.27367 4.4693 3.38867 4.4693 3.48967C4.4693 3.82067 4.4693 3.95033 4.2103 4.20933L3.31763 5.18833L4.26763 5.18767C4.37296 5.18767 4.38896 5.139 4.38896 5.042H4.38863Z" fill="#FDA560"/>
</svg>
