<svg width="8" height="8" viewBox="0 0 8 8" fill="none" xmlns="http://www.w3.org/2000/svg">
<path d="M0.666504 4.0013C0.666504 5.8423 2.14778 7.33464 3.97513 7.33464C4.63913 7.33464 5.25743 7.1376 5.77557 6.79839L5.29409 6.31332C4.8962 6.54369 4.44203 6.66797 3.97513 6.66797C3.27313 6.66797 2.59988 6.38702 2.10349 5.88692C1.6071 5.38682 1.32823 4.70855 1.32823 4.0013C1.32823 3.53092 1.45159 3.07335 1.68025 2.67249L1.19877 2.18742C0.862082 2.70943 0.666504 3.33235 0.666504 4.0013Z" fill="#C7C7C7"/>
<path fill-rule="evenodd" clip-rule="evenodd" d="M6.62162 6.00223L7.33317 6.7191L6.91205 7.14336L1.03797 1.22542L1.45909 0.801152L1.98904 1.33505C2.54217 0.916191 3.22987 0.667969 3.97513 0.667969C5.80248 0.667969 7.28376 2.1603 7.28376 4.0013C7.28376 4.75213 7.03737 5.44497 6.62162 6.00223ZM2.46303 1.81259C2.90375 1.50356 3.43079 1.33464 3.97513 1.33464C4.67713 1.33464 5.35038 1.61559 5.84677 2.11568C6.34316 2.61578 6.62203 3.29406 6.62203 4.0013C6.62203 4.5497 6.45436 5.08069 6.14762 5.52469L5.39177 4.7632C5.41747 4.67944 5.43092 4.59106 5.43092 4.50117C5.43092 4.28016 5.34959 4.0682 5.20481 3.91192C5.06003 3.75564 4.86366 3.66784 4.65891 3.66784H4.30453L3.97367 3.33451H5.12212V2.66784H4.35011V2.00117H3.7325V2.66784H3.42369C3.38865 2.66784 3.35385 2.67041 3.31951 2.67546L2.46303 1.81259Z" fill="#C7C7C7"/>
<path d="M2.66705 3.66666L3.32287 4.32737C3.15533 4.30355 2.9986 4.22083 2.8778 4.09043C2.7697 3.97374 2.69697 3.82602 2.66705 3.66666Z" fill="#C7C7C7"/>
<path d="M4.35011 5.36228L3.66081 4.66784H2.96048V5.33451H3.7325V6.00117H4.35011V5.36228Z" fill="#C7C7C7"/>
</svg>
