<svg width="10" height="10" viewBox="0 0 10 10" fill="none" xmlns="http://www.w3.org/2000/svg">
<path d="M4.58333 2.08333H2.08333V7.91667H4.58333V2.08333ZM5.41667 2.08333V7.91667H7.91667V2.08333H5.41667ZM1.66667 1.25H8.33333C8.44384 1.25 8.54982 1.2939 8.62796 1.37204C8.7061 1.45018 8.75 1.55616 8.75 1.66667V8.33333C8.75 8.44384 8.7061 8.54982 8.62796 8.62796C8.54982 8.7061 8.44384 8.75 8.33333 8.75H1.66667C1.55616 8.75 1.45018 8.7061 1.37204 8.62796C1.2939 8.54982 1.25 8.44384 1.25 8.33333V1.66667C1.25 1.55616 1.2939 1.45018 1.37204 1.37204C1.45018 1.2939 1.55616 1.25 1.66667 1.25Z" fill="#E7E7E7"/>
</svg>
