<svg width="10" height="10" viewBox="0 0 10 10" fill="none" xmlns="http://www.w3.org/2000/svg">
<path d="M5.00016 9.16537C2.69891 9.16537 0.833496 7.29995 0.833496 4.9987C0.833496 3.13286 2.05975 1.5537 3.75016 1.02286V1.90786C3.03388 2.19872 2.44091 2.72941 2.07269 3.40916C1.70446 4.08892 1.58386 4.87549 1.73152 5.63434C1.87917 6.39319 2.28591 7.07716 2.88215 7.56925C3.47839 8.06134 4.22708 8.33098 5.00016 8.33203C5.66424 8.33201 6.31318 8.13372 6.86385 7.76255C7.41451 7.39138 7.84181 6.86425 8.091 6.2487H8.976C8.44516 7.93912 6.866 9.16537 5.00016 9.16537ZM9.146 5.41536H4.5835V0.852865C4.72058 0.839115 4.85975 0.832031 5.00016 0.832031C7.30141 0.832031 9.16683 2.69745 9.16683 4.9987C9.16683 5.13911 9.15975 5.27828 9.146 5.41536ZM5.41683 1.6912V4.58203H8.30766C8.21492 3.8477 7.88052 3.16509 7.35715 2.64171C6.83377 2.11834 6.15116 1.78394 5.41683 1.6912Z" fill="#E7E7E7"/>
</svg>
