<svg width="8" height="8" viewBox="0 0 8 8" fill="none" xmlns="http://www.w3.org/2000/svg">
<path d="M5.73496 5.31732L7 6.58206L6.58206 7L5.31732 5.73496C4.84673 6.11221 4.2614 6.31739 3.65827 6.31653C2.1909 6.31653 1 5.12563 1 3.65827C1 2.1909 2.1909 1 3.65827 1C5.12563 1 6.31653 2.1909 6.31653 3.65827C6.31739 4.2614 6.11221 4.84673 5.73496 5.31732ZM5.14246 5.09816C5.51731 4.71268 5.72665 4.19595 5.72581 3.65827C5.72581 2.5158 4.80043 1.59073 3.65827 1.59073C2.5158 1.59073 1.59073 2.5158 1.59073 3.65827C1.59073 4.80043 2.5158 5.72581 3.65827 5.72581C4.19595 5.72665 4.71268 5.51731 5.09816 5.14246L5.14246 5.09816Z" fill="#E7E7E7"/>
</svg>
