<svg width="17" height="17" viewBox="0 0 17 17" fill="none" xmlns="http://www.w3.org/2000/svg">
<path d="M16.1206 5.83671L14.2401 6.92235C14.3778 7.42378 14.4514 7.95353 14.4514 8.5V9.3502H17.001V11.0506H14.4514C14.4514 11.8607 14.2897 12.6338 13.9956 13.3376L16.1206 14.5651L15.2704 16.0371L13.1233 14.7975C12.566 15.4864 11.8615 16.0422 11.0617 16.4235C10.2619 16.8046 9.38694 17.0019 8.50101 17.001C7.61511 17.0019 6.74008 16.8046 5.94034 16.4235C5.47247 16.2005 5.03864 15.9154 4.64643 15.5813L5.85281 14.3749C6.37422 14.7905 6.9893 15.0808 7.6508 15.2161V12.5779L9.35121 10.8775V15.2161C10.311 15.0198 11.1736 14.4979 11.7931 13.7391C12.4127 12.9801 12.7509 12.0303 12.751 11.0506V8.5C12.7516 8.18909 12.7162 7.88033 12.6494 7.57836L15.4877 4.74L16.1206 5.83671ZM3.44809 5.35476C3.50221 5.26845 3.55866 5.18362 3.61713 5.1002H9.07552L7.37512 6.8006H4.60316C4.36952 7.33664 4.24992 7.91526 4.25101 8.5V9.92472L2.57576 11.599C2.55906 11.417 2.5504 11.234 2.5506 11.0506H0V9.3502H2.5506V8.5C2.55064 7.95354 2.62422 7.42463 2.7619 6.92235L0.881392 5.83671L1.73059 4.3637L3.44809 5.35476ZM8.50101 0C9.40276 3.47725e-05 10.2681 0.358454 10.9057 0.996094C11.3059 1.39645 11.5954 1.88649 11.7559 2.4188L10.7759 3.3998H5.1002C5.10025 2.49822 5.45888 1.63369 6.09629 0.996094C6.73397 0.358423 7.5992 0 8.50101 0Z" fill="#E7E7E7"/>
</svg>
