<svg width="16" height="16" viewBox="0 0 16 16" fill="none" xmlns="http://www.w3.org/2000/svg">
<path d="M8.6 11.4737V12.7368H11V14H5V12.7368H7.4V11.4737H2.6C2.44087 11.4737 2.28826 11.4071 2.17574 11.2887C2.06321 11.1703 2 11.0096 2 10.8421V2.63158C2 2.46407 2.06321 2.30343 2.17574 2.18499C2.28826 2.06654 2.44087 2 2.6 2H13.4C13.5591 2 13.7117 2.06654 13.8243 2.18499C13.9368 2.30343 14 2.46407 14 2.63158V10.8421C14 11.0096 13.9368 11.1703 13.8243 11.2887C13.7117 11.4071 13.5591 11.4737 13.4 11.4737H8.6ZM3.2 3.26316V10.2105H12.8V3.26316H3.2ZM6.8 4.84211L9.8 6.73684L6.8 8.63158V4.84211Z" fill="#999999"/>
</svg>
