<svg width="16" height="16" viewBox="0 0 16 16" fill="none" xmlns="http://www.w3.org/2000/svg">
<g clip-path="url(#clip0_0_738)">
<path d="M5.79157 2.66757L7.52957 0.929566C7.65458 0.804585 7.82412 0.734375 8.0009 0.734375C8.17767 0.734375 8.34721 0.804585 8.47223 0.929566L10.2102 2.66757H12.6676C12.8444 2.66757 13.0139 2.7378 13.139 2.86283C13.264 2.98785 13.3342 3.15742 13.3342 3.33423V5.79157L15.0722 7.52957C15.1972 7.65458 15.2674 7.82412 15.2674 8.0009C15.2674 8.17767 15.1972 8.34721 15.0722 8.47223L13.3342 10.2102V12.6676C13.3342 12.8444 13.264 13.0139 13.139 13.139C13.0139 13.264 12.8444 13.3342 12.6676 13.3342H10.2102L8.47223 15.0722C8.34721 15.1972 8.17767 15.2674 8.0009 15.2674C7.82412 15.2674 7.65458 15.1972 7.52957 15.0722L5.79157 13.3342H3.33423C3.15742 13.3342 2.98785 13.264 2.86283 13.139C2.7378 13.0139 2.66757 12.8444 2.66757 12.6676V10.2102L0.929566 8.47223C0.804585 8.34721 0.734375 8.17767 0.734375 8.0009C0.734375 7.82412 0.804585 7.65458 0.929566 7.52957L2.66757 5.79157V3.33423C2.66757 3.15742 2.7378 2.98785 2.86283 2.86283C2.98785 2.7378 3.15742 2.66757 3.33423 2.66757H5.79157ZM4.0009 4.0009V6.34423L2.34423 8.0009L4.0009 9.65757V12.0009H6.34423L8.0009 13.6576L9.65757 12.0009H12.0009V9.65757L13.6576 8.0009L12.0009 6.34423V4.0009H9.65757L8.0009 2.34423L6.34423 4.0009H4.0009ZM8.0009 10.6676C7.29365 10.6676 6.61538 10.3866 6.11528 9.88652C5.61518 9.38642 5.33423 8.70814 5.33423 8.0009C5.33423 7.29365 5.61518 6.61538 6.11528 6.11528C6.61538 5.61518 7.29365 5.33423 8.0009 5.33423C8.70814 5.33423 9.38642 5.61518 9.88652 6.11528C10.3866 6.61538 10.6676 7.29365 10.6676 8.0009C10.6676 8.70814 10.3866 9.38642 9.88652 9.88652C9.38642 10.3866 8.70814 10.6676 8.0009 10.6676ZM8.0009 9.33423C8.35452 9.33423 8.69366 9.19376 8.94371 8.94371C9.19376 8.69366 9.33423 8.35452 9.33423 8.0009C9.33423 7.64728 9.19376 7.30814 8.94371 7.05809C8.69366 6.80804 8.35452 6.66757 8.0009 6.66757C7.64728 6.66757 7.30814 6.80804 7.05809 7.05809C6.80804 7.30814 6.66757 7.64728 6.66757 8.0009C6.66757 8.35452 6.80804 8.69366 7.05809 8.94371C7.30814 9.19376 7.64728 9.33423 8.0009 9.33423Z" fill="#E7E7E7"/>
</g>
<defs>
<clipPath id="clip0_0_738">
<rect width="16" height="16" fill="white"/>
</clipPath>
</defs>
</svg>
