<svg width="16" height="16" viewBox="0 0 16 16" fill="none" xmlns="http://www.w3.org/2000/svg">
<path d="M8 12.4816C8.552 12.4816 9 12.9116 9 13.4416C9 13.9715 8.552 14.4016 8 14.4016C7.448 14.4016 7 13.9715 7 13.4416C7 12.9116 7.448 12.4816 8 12.4816ZM8 1.60156C10.2093 1.60156 12 3.3206 12 5.44156C12 6.82716 11.498 7.54716 10.2173 8.59228C8.93267 9.63996 8.66667 10.1116 8.66667 11.2016H7.33333C7.33333 9.6182 7.858 8.83676 9.354 7.61692C10.3653 6.79196 10.6667 6.35932 10.6667 5.44156C10.6667 4.02716 9.47333 2.88156 8 2.88156C6.52667 2.88156 5.33333 4.02716 5.33333 5.44156V6.08156H4V5.44156C4 3.3206 5.79067 1.60156 8 1.60156Z" fill="#E7E7E7"/>
</svg>
