<svg width="20" height="20" viewBox="0 0 20 20" fill="none" xmlns="http://www.w3.org/2000/svg">
<path d="M2.78375 14.1655C2.43148 13.5564 2.15764 12.9051 1.96875 12.2272C2.37984 12.0181 2.72508 11.6994 2.96627 11.3063C3.20747 10.9132 3.33522 10.461 3.33539 9.9998C3.33557 9.5386 3.20815 9.08633 2.96725 8.69304C2.72635 8.29975 2.38135 7.98077 1.97042 7.77138C2.34711 6.40928 3.06436 5.1655 4.05458 4.15721C4.44133 4.40865 4.8901 4.54818 5.35123 4.56036C5.81236 4.57254 6.26788 4.4569 6.66736 4.22624C7.06684 3.99557 7.39471 3.65887 7.61469 3.25341C7.83467 2.84794 7.93817 2.38952 7.91375 1.92888C9.28217 1.57523 10.7181 1.5758 12.0863 1.93054C12.062 2.39118 12.1658 2.84953 12.3859 3.25488C12.606 3.66023 12.934 3.99677 13.3336 4.22726C13.7332 4.45775 14.1887 4.5732 14.6498 4.56084C15.1109 4.54847 15.5596 4.40878 15.9462 4.15721C16.4288 4.64888 16.8571 5.20804 17.2171 5.83221C17.5779 6.45638 17.8479 7.10721 18.0321 7.77054C17.621 7.97963 17.2758 8.29835 17.0346 8.69146C16.7934 9.08457 16.6656 9.53674 16.6654 9.99795C16.6653 10.4592 16.7927 10.9114 17.0336 11.3047C17.2745 11.698 17.6195 12.017 18.0304 12.2264C17.6537 13.5885 16.9365 14.8322 15.9462 15.8405C15.5595 15.5891 15.1107 15.4496 14.6496 15.4374C14.1885 15.4252 13.733 15.5408 13.3335 15.7715C12.934 16.0022 12.6061 16.3389 12.3861 16.7443C12.1662 17.1498 12.0627 17.6082 12.0871 18.0689C10.7187 18.4225 9.28272 18.4219 7.91458 18.0672C7.93879 17.6066 7.83508 17.1482 7.61493 16.7429C7.39479 16.3375 7.06679 16.001 6.66723 15.7705C6.26767 15.54 5.81213 15.4246 5.35102 15.4369C4.88991 15.4493 4.44122 15.589 4.05458 15.8405C3.56208 15.338 3.13508 14.7752 2.78375 14.1655ZM7.50042 14.3289C8.38844 14.8411 9.05612 15.6631 9.37542 16.6372C9.79125 16.6764 10.2087 16.6772 10.6246 16.638C10.9441 15.6638 11.6121 14.8417 12.5004 14.3297C13.3881 13.8161 14.4342 13.6484 15.4379 13.8589C15.6796 13.5189 15.8879 13.1564 16.0613 12.7772C15.3774 12.0134 14.9997 11.024 15.0004 9.99888C15.0004 8.94888 15.3921 7.96804 16.0613 7.22054C15.8867 6.8415 15.6775 6.4794 15.4363 6.13888C14.4332 6.34913 13.3877 6.18177 12.5004 5.66888C11.6124 5.15669 10.9447 4.33469 10.6254 3.36054C10.2096 3.32138 9.79208 3.32054 9.37625 3.35971C9.05675 4.334 8.38875 5.15601 7.50042 5.66804C6.61274 6.18164 5.56665 6.34931 4.56292 6.13888C4.32172 6.47911 4.11303 6.84126 3.93958 7.22054C4.62339 7.98434 5.00115 8.9737 5.00042 9.99888C5.00042 11.0489 4.60875 12.0297 3.93958 12.7772C4.11414 13.1563 4.32337 13.5183 4.56458 13.8589C5.56768 13.6486 6.61309 13.816 7.50042 14.3289ZM10.0004 12.4989C9.33738 12.4989 8.70149 12.2355 8.23265 11.7666C7.76381 11.2978 7.50042 10.6619 7.50042 9.99888C7.50042 9.33583 7.76381 8.69995 8.23265 8.23111C8.70149 7.76227 9.33738 7.49888 10.0004 7.49888C10.6635 7.49888 11.2993 7.76227 11.7682 8.23111C12.237 8.69995 12.5004 9.33583 12.5004 9.99888C12.5004 10.6619 12.237 11.2978 11.7682 11.7666C11.2993 12.2355 10.6635 12.4989 10.0004 12.4989ZM10.0004 10.8322C10.2214 10.8322 10.4334 10.7444 10.5897 10.5881C10.746 10.4319 10.8337 10.2199 10.8337 9.99888C10.8337 9.77786 10.746 9.5659 10.5897 9.40962C10.4334 9.25334 10.2214 9.16554 10.0004 9.16554C9.7794 9.16554 9.56744 9.25334 9.41116 9.40962C9.25488 9.5659 9.16708 9.77786 9.16708 9.99888C9.16708 10.2199 9.25488 10.4319 9.41116 10.5881C9.56744 10.7444 9.7794 10.8322 10.0004 10.8322Z" fill="#E7E7E7"/>
</svg>
