<svg width="16" height="16" viewBox="0 0 16 16" fill="none" xmlns="http://www.w3.org/2000/svg">
<path d="M6.54948 4V5.33333H3.21615V12.6667H10.5495V9.33333H11.8828V13.3333C11.8828 13.5101 11.8126 13.6797 11.6876 13.8047C11.5625 13.9298 11.393 14 11.2161 14H2.54948C2.37267 14 2.2031 13.9298 2.07807 13.8047C1.95305 13.6797 1.88281 13.5101 1.88281 13.3333V4.66667C1.88281 4.48986 1.95305 4.32029 2.07807 4.19526C2.2031 4.07024 2.37267 4 2.54948 4H6.54948ZM13.8828 2V7.33333H12.5495V4.27533L7.35415 9.47133L6.41148 8.52867L11.6061 3.33333H8.54948V2H13.8828Z" fill="#7FB8F0"/>
</svg>
