<svg width="16" height="16" viewBox="0 0 16 16" fill="none" xmlns="http://www.w3.org/2000/svg">
<path d="M13.3359 11.332H14.6693V12.6654H1.33594V11.332H2.66927V6.66536C2.66927 5.25088 3.23117 3.89432 4.23137 2.89413C5.23156 1.89393 6.58812 1.33203 8.00261 1.33203C9.41709 1.33203 10.7736 1.89393 11.7738 2.89413C12.774 3.89432 13.3359 5.25088 13.3359 6.66536V11.332ZM12.0026 11.332V6.66536C12.0026 5.6045 11.5812 4.58708 10.831 3.83694C10.0809 3.08679 9.06347 2.66536 8.00261 2.66536C6.94174 2.66536 5.92432 3.08679 5.17418 3.83694C4.42403 4.58708 4.0026 5.6045 4.0026 6.66536V11.332H12.0026ZM6.0026 13.9987H10.0026V15.332H6.0026V13.9987Z" fill="#E7E7E7"/>
</svg>
