<svg width="16" height="16" viewBox="0 0 16 16" fill="none" xmlns="http://www.w3.org/2000/svg">
<g clip-path="url(#clip0_5302_304726)">
<path d="M7.9974 9.33463V10.668C6.93653 10.668 5.91911 11.0894 5.16897 11.8395C4.41882 12.5897 3.9974 13.6071 3.9974 14.668H2.66406C2.66406 13.2535 3.22597 11.8969 4.22616 10.8967C5.22635 9.89654 6.58291 9.33463 7.9974 9.33463ZM7.9974 8.66797C5.7874 8.66797 3.9974 6.87797 3.9974 4.66797C3.9974 2.45797 5.7874 0.667969 7.9974 0.667969C10.2074 0.667969 11.9974 2.45797 11.9974 4.66797C11.9974 6.87797 10.2074 8.66797 7.9974 8.66797ZM7.9974 7.33463C9.47073 7.33463 10.6641 6.1413 10.6641 4.66797C10.6641 3.19464 9.47073 2.0013 7.9974 2.0013C6.52406 2.0013 5.33073 3.19464 5.33073 4.66797C5.33073 6.1413 6.52406 7.33463 7.9974 7.33463ZM13.8827 14.0486L11.9974 16.0013L10.1121 14.0486C9.07006 12.97 9.07006 11.222 10.1121 10.1433C10.3552 9.88786 10.6476 9.68449 10.9717 9.54552C11.2958 9.40656 11.6448 9.3349 11.9974 9.3349C12.35 9.3349 12.699 9.40656 13.0231 9.54552C13.3472 9.68449 13.6396 9.88786 13.8827 10.1433C14.9247 11.222 14.9247 12.97 13.8827 14.0486ZM12.9241 13.122C13.4661 12.5606 13.4661 11.6313 12.9241 11.07C12.8053 10.9431 12.6618 10.842 12.5024 10.7729C12.343 10.7038 12.1711 10.6681 11.9974 10.6681C11.8237 10.6681 11.6518 10.7038 11.4924 10.7729C11.333 10.842 11.1895 10.9431 11.0707 11.07C10.5287 11.6313 10.5287 12.5606 11.0707 13.1226L11.9974 14.0813L12.9241 13.1213V13.122Z" fill="#999999"/>
</g>
<defs>
<clipPath id="clip0_5302_304726">
<rect width="16" height="16" fill="white"/>
</clipPath>
</defs>
</svg>
